<?xml version="1.0" encoding="UTF-8" standalone="no"?>
<!DOCTYPE svg PUBLIC "-//W3C//DTD SVG 1.1//EN" "http://www.w3.org/Graphics/SVG/1.1/DTD/svg11.dtd">
<svg width="100%" height="100%" viewBox="0 0 201 201" version="1.1" xmlns="http://www.w3.org/2000/svg" xmlns:xlink="http://www.w3.org/1999/xlink" xml:space="preserve" xmlns:serif="http://www.serif.com/" style="fill-rule:evenodd;clip-rule:evenodd;stroke-linejoin:round;stroke-miterlimit:2;">
    <path d="M100.001,0.001C155.193,0.001 200.001,44.81 200.001,100.001C200.001,155.193 155.193,200.001 100.001,200.001C44.81,200.001 0.001,155.193 0.001,100.001C0.001,44.81 44.81,0.001 100.001,0.001ZM110.939,81.251L137.501,81.251L137.501,145.314C137.501,147.911 135.411,150.001 132.814,150.001L67.189,150.001C64.591,150.001 62.501,147.911 62.501,145.314L62.501,54.689C62.501,52.091 64.591,50.001 67.189,50.001L106.251,50.001L106.251,76.564C106.251,79.142 108.36,81.251 110.939,81.251ZM109.376,114.806C105.47,112.423 102.872,109.142 101.036,104.298C101.915,100.685 103.302,95.196 102.247,91.759C101.329,86.017 93.966,86.583 92.911,90.431C91.935,94.005 92.833,99.044 94.493,105.47C92.228,110.86 88.888,118.087 86.525,122.228C86.505,122.228 86.505,122.247 86.485,122.247C81.193,124.962 72.11,130.939 75.841,135.528C76.935,136.876 78.966,137.482 80.04,137.482C83.536,137.482 87.013,133.966 91.974,125.411C97.013,123.751 102.54,121.681 107.403,120.88C111.642,123.185 116.603,124.689 119.903,124.689C125.607,124.689 125.997,118.439 123.751,116.212C121.036,113.556 113.146,114.318 109.376,114.806ZM79.318,133.614C79.318,133.693 79.962,133.429 81.136,132.296C82.311,131.163 84.015,129.161 86.134,125.763C84.825,126.993 80.45,130.548 79.318,133.614ZM97.696,109.239C96.193,113.185 94.318,117.696 92.15,121.485C95.724,120.118 99.767,118.126 104.435,117.208C101.954,115.333 99.571,112.638 97.696,109.239ZM121.661,120.372C122.062,120.109 121.94,119.527 120.734,119.083C119.527,118.639 117.237,118.331 113.302,118.614C120.548,121.7 121.661,120.372 121.661,120.372ZM98.028,100.021C97.54,98.458 97.301,96.168 97.255,94.269C97.208,92.369 97.355,90.86 97.638,90.86C99.278,90.86 99.122,98.068 98.028,100.021ZM136.134,70.509L116.993,51.368C116.114,50.489 114.923,50.001 113.673,50.001L112.501,50.001L112.501,75.001L137.501,75.001L137.501,73.81C137.501,72.579 137.013,71.388 136.134,70.509Z"/>
</svg>
